<svg width="512" height="512" xmlns="http://www.w3.org/2000/svg" class="svg-inline--fa fa-arrow-circle-down fa-w-16">

 <g>
  <title>background</title>
  <rect fill="none" id="canvas_background" height="402" width="582" y="-1" x="-1"/>
 </g>
 <g>
  <title>Layer 1</title>
  <path id="svg_1" d="m504,256c0,137 -111,248 -248,248s-248,-111 -248,-248s111,-248 248,-248s248,111 248,248zm-143.6,-28.9l-72.4,75.5l0,-182.6c0,-13.3 -10.7,-24 -24,-24l-16,0c-13.3,0 -24,10.7 -24,24l0,182.6l-72.4,-75.5c-9.3,-9.7 -24.8,-9.9 -34.3,-0.4l-10.9,11c-9.4,9.4 -9.4,24.6 0,33.9l132.6,132.7c9.4,9.4 24.6,9.4 33.9,0l132.7,-132.7c9.4,-9.4 9.4,-24.6 0,-33.9l-10.9,-11c-9.5,-9.5 -25,-9.3 -34.3,0.4z" fill="#DDDDDD"/>
 </g>
</svg>