<?xml version="1.0" encoding="UTF-8" standalone="no"?>
<!DOCTYPE svg PUBLIC "-//W3C//DTD SVG 1.1//EN" "http://www.w3.org/Graphics/SVG/1.1/DTD/svg11.dtd">
<svg version="1.1" xmlns="http://www.w3.org/2000/svg" xmlns:xlink="http://www.w3.org/1999/xlink" preserveAspectRatio="xMidYMid meet" viewBox="0 0 640 640" width="640" height="640"><defs><path d="M404.31 26.88L404.7 26.91L405.08 26.97L405.46 27.03L405.83 27.11L406.2 27.2L406.56 27.3L406.92 27.42L407.27 27.55L407.61 27.69L407.94 27.84L408.27 28.01L408.59 28.18L408.9 28.37L409.21 28.57L409.5 28.77L409.79 28.99L410.06 29.22L410.33 29.46L410.59 29.7L410.83 29.96L411.07 30.22L411.29 30.49L411.51 30.77L411.71 31.06L411.9 31.36L412.08 31.66L412.24 31.97L412.4 32.28L412.54 32.61L412.66 32.93L412.78 33.27L412.87 33.61L412.96 33.95L413.03 34.3L413.08 34.66L413.12 35.02L413.15 35.38L413.15 35.74L413.15 213.65L605.89 213.65L606.28 213.66L606.68 213.68L607.07 213.72L607.45 213.77L607.83 213.83L608.2 213.91L608.57 214L608.93 214.1L609.29 214.22L609.64 214.35L609.98 214.49L610.31 214.64L610.64 214.81L610.96 214.98L611.27 215.17L611.58 215.37L611.87 215.58L612.16 215.79L612.43 216.02L612.7 216.26L612.96 216.5L613.2 216.76L613.44 217.02L613.66 217.29L613.88 217.57L614.08 217.86L614.27 218.16L614.45 218.46L614.61 218.77L614.77 219.09L614.91 219.41L615.03 219.74L615.14 220.07L615.24 220.41L615.33 220.75L615.4 221.1L615.45 221.46L615.49 221.82L615.52 222.18L615.52 222.55L615.52 364.87L615.52 365.24L615.49 365.6L615.45 365.96L615.4 366.31L615.33 366.66L615.24 367.01L615.14 367.35L615.03 367.68L614.91 368.01L614.77 368.33L614.61 368.65L614.45 368.96L614.27 369.26L614.08 369.56L613.88 369.84L613.66 370.12L613.44 370.4L613.2 370.66L612.96 370.91L612.7 371.16L612.43 371.4L612.16 371.63L611.87 371.84L611.58 372.05L611.27 372.25L610.96 372.43L610.64 372.61L610.31 372.77L609.98 372.93L609.64 373.07L609.29 373.2L608.93 373.31L608.57 373.42L608.2 373.51L607.83 373.59L607.45 373.65L607.07 373.7L606.68 373.74L606.28 373.76L605.89 373.77L413.15 373.77L413.15 551.67L413.15 552.04L413.12 552.4L413.08 552.76L413.03 553.12L412.96 553.47L412.87 553.81L412.78 554.15L412.66 554.48L412.54 554.81L412.4 555.14L412.24 555.45L412.08 555.76L411.9 556.06L411.71 556.36L411.51 556.65L411.29 556.93L411.07 557.2L410.83 557.46L410.59 557.72L410.33 557.96L410.06 558.2L409.79 558.43L409.5 558.64L409.21 558.85L408.9 559.05L408.59 559.24L408.27 559.41L407.94 559.58L407.61 559.73L407.27 559.87L406.92 560L406.56 560.12L406.2 560.22L405.83 560.31L405.46 560.39L405.08 560.45L404.7 560.5L404.31 560.54L403.91 560.56L403.52 560.57L249.33 560.57L248.93 560.56L248.54 560.54L248.15 560.5L247.77 560.45L247.39 560.39L247.02 560.31L246.65 560.22L246.29 560.12L245.93 560L245.58 559.87L245.24 559.73L244.9 559.58L244.58 559.41L244.26 559.24L243.95 559.05L243.64 558.85L243.35 558.64L243.06 558.43L242.79 558.2L242.52 557.96L242.26 557.72L242.02 557.46L241.78 557.2L241.56 556.93L241.34 556.65L241.14 556.36L240.95 556.06L240.77 555.76L240.61 555.45L240.45 555.14L240.31 554.81L240.19 554.48L240.07 554.15L239.98 553.81L239.89 553.47L239.82 553.12L239.77 552.76L239.73 552.4L239.7 552.04L239.69 551.67L239.69 373.77L46.96 373.77L46.57 373.76L46.17 373.74L45.78 373.7L45.4 373.65L45.02 373.59L44.65 373.51L44.28 373.42L43.92 373.31L43.56 373.2L43.21 373.07L42.87 372.93L42.54 372.77L42.21 372.61L41.89 372.43L41.58 372.25L41.27 372.05L40.98 371.84L40.69 371.63L40.42 371.4L40.15 371.16L39.89 370.91L39.65 370.66L39.41 370.4L39.19 370.12L38.97 369.84L38.77 369.56L38.58 369.26L38.4 368.96L38.24 368.65L38.08 368.33L37.94 368.01L37.82 367.68L37.7 367.35L37.61 367.01L37.52 366.66L37.45 366.31L37.4 365.96L37.36 365.6L37.33 365.24L37.33 364.87L37.33 222.55L37.33 222.18L37.36 221.82L37.4 221.46L37.45 221.1L37.52 220.75L37.61 220.41L37.7 220.07L37.82 219.74L37.94 219.41L38.08 219.09L38.24 218.77L38.4 218.46L38.58 218.16L38.77 217.86L38.97 217.57L39.19 217.29L39.41 217.02L39.65 216.76L39.89 216.5L40.15 216.26L40.42 216.02L40.69 215.79L40.98 215.58L41.27 215.37L41.58 215.17L41.89 214.98L42.21 214.81L42.54 214.64L42.87 214.49L43.21 214.35L43.56 214.22L43.92 214.1L44.28 214L44.65 213.91L45.02 213.83L45.4 213.77L45.78 213.72L46.17 213.68L46.57 213.66L46.96 213.65L239.69 213.65L239.69 35.74L239.7 35.38L239.73 35.02L239.77 34.66L239.82 34.3L239.89 33.95L239.98 33.61L240.07 33.27L240.19 32.93L240.31 32.61L240.45 32.28L240.61 31.97L240.77 31.66L240.95 31.36L241.14 31.06L241.34 30.77L241.56 30.49L241.78 30.22L242.02 29.96L242.26 29.7L242.52 29.46L242.79 29.22L243.06 28.99L243.35 28.77L243.64 28.57L243.95 28.37L244.26 28.18L244.58 28.01L244.9 27.84L245.24 27.69L245.58 27.55L245.93 27.42L246.29 27.3L246.65 27.2L247.02 27.11L247.39 27.03L247.77 26.97L248.15 26.91L248.54 26.88L248.93 26.86L249.33 26.85L403.52 26.85L403.91 26.86L404.31 26.88Z" id="bcidlfcLur"></path></defs><g><g><g><use xlink:href="#bcidlfcLur" opacity="1" fill="#000000" fill-opacity="1"></use></g></g></g></svg>