<?xml version="1.0" encoding="UTF-8" standalone="no"?>
<!DOCTYPE svg PUBLIC "-//W3C//DTD SVG 1.1//EN" "http://www.w3.org/Graphics/SVG/1.1/DTD/svg11.dtd">
<svg version="1.1" xmlns="http://www.w3.org/2000/svg" xmlns:xlink="http://www.w3.org/1999/xlink" preserveAspectRatio="xMidYMid meet" viewBox="0 0 640 640" width="640" height="640"><defs><path d="M170.85 357.69L475.09 357.69L475.09 593.42L170.85 593.42L170.85 357.69Z" id="b1Q29SbcFs"></path><path d="M538.41 353.06L107.53 353.06L538.41 353.06Z" id="hgBzdaKPy"></path><path d="M496.2 166.67C496.2 136.58 496.2 117.78 496.2 110.26C496.2 101.58 489.17 94.55 480.49 94.55C414.34 94.55 227.03 94.55 159.74 94.55C154.21 94.55 149.74 99.02 149.74 104.54C149.74 112.83 149.74 133.54 149.74 166.67" id="gzO3PHPZ"></path><path d="M475.09 484.64C543.88 484.64 586.86 484.64 604.06 484.64C609.58 484.64 614.06 480.17 614.06 474.65C614.06 413.98 614.06 246.54 614.06 187.01C614.06 178.35 607.02 171.34 598.36 171.37C485.06 171.81 154.04 173.07 39.03 173.51C35.08 173.52 31.88 176.73 31.88 180.69C31.88 241.48 31.88 414.42 31.88 474.65C31.88 480.17 36.36 484.64 41.88 484.64C59.08 484.64 102.07 484.64 170.85 484.64" id="b6eyrSZwx"></path></defs><g><g><g><g><use xlink:href="#b1Q29SbcFs" opacity="1" fill-opacity="0" stroke="#ffffff" stroke-width="50" stroke-opacity="1"></use></g></g><g><g><use xlink:href="#hgBzdaKPy" opacity="1" fill-opacity="0" stroke="#ffffff" stroke-width="50" stroke-opacity="1"></use></g></g><g><g><use xlink:href="#gzO3PHPZ" opacity="1" fill-opacity="0" stroke="#ffffff" stroke-width="50" stroke-opacity="1"></use></g></g><g><g><use xlink:href="#b6eyrSZwx" opacity="1" fill-opacity="0" stroke="#ffffff" stroke-width="50" stroke-opacity="1"></use></g></g></g></g></svg>