<?xml version="1.0" encoding="UTF-8" standalone="no"?>
<!DOCTYPE svg PUBLIC "-//W3C//DTD SVG 1.1//EN" "http://www.w3.org/Graphics/SVG/1.1/DTD/svg11.dtd">
<svg version="1.1" xmlns="http://www.w3.org/2000/svg" xmlns:xlink="http://www.w3.org/1999/xlink" preserveAspectRatio="xMidYMid meet" viewBox="0 0 640 640" width="640" height="640"><defs><path d="M584.2 56.16C602.29 56.16 616.95 70.83 616.95 88.91C616.95 192.36 616.95 469.96 616.95 573.41C616.95 591.5 602.29 606.16 584.2 606.16C472.98 606.16 172.06 606.16 60.83 606.16C42.74 606.16 28.08 591.5 28.08 573.41C28.08 469.96 28.08 192.36 28.08 88.91C28.08 70.83 42.74 56.16 60.83 56.16C172.06 56.16 472.98 56.16 584.2 56.16Z" id="b11bcScs5d"></path><path d="M339.58 447.45L339.6 447.47L249.16 545.05L81.62 364.3L172.06 266.72L249.13 349.87L479.05 101.82L569.49 199.4L339.58 447.45Z" id="j11hur6tFe"></path></defs><g><g><g><use xlink:href="#b11bcScs5d" opacity="1" fill="#ffffff" fill-opacity="0"></use><g><use xlink:href="#b11bcScs5d" opacity="1" fill-opacity="0" stroke="#000000" stroke-width="50" stroke-opacity="1"></use></g></g><g><use xlink:href="#j11hur6tFe" opacity="1" fill="#000000" fill-opacity="1"></use></g></g></g></svg>