<?xml version="1.0" encoding="UTF-8" standalone="no"?>
<!DOCTYPE svg PUBLIC "-//W3C//DTD SVG 1.1//EN" "http://www.w3.org/Graphics/SVG/1.1/DTD/svg11.dtd">
<svg version="1.1" xmlns="http://www.w3.org/2000/svg" xmlns:xlink="http://www.w3.org/1999/xlink" preserveAspectRatio="xMidYMid meet" viewBox="0 0 640 640" width="640" height="640"><defs><path d="M368.11 15.31L368.71 15.39L369.29 15.51L369.86 15.65L370.41 15.82L370.94 16.02L371.46 16.25L371.96 16.5L372.44 16.79L372.91 17.09L373.37 17.43L373.81 17.79L374.25 18.18L374.66 18.59L375.07 19.02L375.47 19.47L375.85 19.95L376.22 20.45L376.59 20.97L376.94 21.51L377.28 22.07L377.62 22.65L377.95 23.25L378.27 23.86L378.58 24.49L378.89 25.14L379.19 25.8L379.48 26.48L379.77 27.18L380.06 27.88L380.33 28.61L380.61 29.34L380.88 30.08L381.15 30.84L381.42 31.61L381.69 32.39L381.95 33.17L382.21 33.97L382.48 34.77L395.98 85.45L400.22 86.76L409.59 90.09L418.79 93.77L427.81 97.79L436.64 102.15L437.37 102.54L482.9 76.18L483.66 75.8L484.4 75.42L485.15 75.05L485.89 74.69L486.62 74.34L487.34 73.99L488.06 73.66L488.78 73.34L489.48 73.02L490.19 72.73L490.88 72.44L491.57 72.17L492.25 71.91L492.92 71.67L493.59 71.44L494.25 71.23L494.91 71.04L495.55 70.87L496.19 70.72L496.83 70.59L497.45 70.48L498.07 70.39L498.68 70.32L499.28 70.28L499.87 70.26L500.46 70.27L501.03 70.3L501.6 70.36L502.16 70.45L502.72 70.56L503.26 70.7L503.79 70.88L504.32 71.08L504.84 71.31L505.35 71.58L505.85 71.88L506.34 72.21L506.82 72.58L507.29 72.98L507.75 73.42L574.02 139.69L574.46 140.15L574.86 140.63L575.24 141.11L575.58 141.61L575.89 142.12L576.17 142.64L576.41 143.17L576.63 143.71L576.82 144.26L576.98 144.82L577.11 145.39L577.21 145.97L577.29 146.56L577.34 147.15L577.36 147.75L577.36 148.37L577.34 148.98L577.29 149.61L577.21 150.24L577.12 150.88L577 151.52L576.86 152.17L576.69 152.83L576.51 153.49L576.31 154.16L576.08 154.83L575.84 155.5L575.58 156.18L575.31 156.87L575.01 157.55L574.7 158.24L574.37 158.93L574.03 159.63L573.67 160.33L573.3 161.03L572.92 161.73L572.52 162.43L572.11 163.13L571.69 163.83L571.25 164.54L544.94 210L545.48 210.99L549.84 219.82L553.86 228.83L557.54 238.03L560.87 247.4L562.18 251.64L612.85 265.15L613.66 265.34L614.45 265.54L615.24 265.75L616.02 265.96L616.79 266.19L617.54 266.42L618.29 266.66L619.02 266.91L619.74 267.16L620.45 267.43L621.14 267.71L621.82 268L622.49 268.29L623.13 268.6L623.77 268.92L624.38 269.24L624.98 269.58L625.56 269.93L626.12 270.29L626.66 270.66L627.18 271.05L627.67 271.44L628.15 271.85L628.61 272.27L629.04 272.7L629.45 273.14L629.83 273.6L630.2 274.07L630.53 274.55L630.84 275.04L631.12 275.55L631.38 276.07L631.61 276.61L631.81 277.16L631.98 277.73L632.12 278.3L632.23 278.9L632.31 279.51L632.36 280.13L632.38 280.77L632.38 374.48L632.36 375.12L632.31 375.74L632.23 376.34L632.12 376.92L631.98 377.48L631.81 378.03L631.61 378.56L631.38 379.08L631.12 379.58L630.84 380.07L630.53 380.54L630.2 381L629.83 381.44L629.45 381.87L629.04 382.29L628.61 382.7L628.15 383.09L627.67 383.47L627.18 383.85L626.66 384.21L626.12 384.56L625.56 384.91L624.98 385.25L624.38 385.57L623.77 385.89L623.13 386.21L622.49 386.51L621.82 386.81L621.14 387.11L620.45 387.4L619.74 387.68L619.02 387.96L618.29 388.24L617.54 388.51L616.79 388.78L616.02 389.05L615.24 389.31L614.45 389.57L613.66 389.84L612.85 390.1L562.18 403.61L560.87 407.85L557.54 417.22L553.86 426.42L549.84 435.43L545.48 444.26L544.99 445.15L571.25 490.53L571.69 491.23L572.11 491.93L572.52 492.64L572.92 493.34L573.3 494.04L573.67 494.74L574.03 495.43L574.37 496.13L574.7 496.82L575.01 497.51L575.31 498.2L575.58 498.88L575.84 499.56L576.08 500.24L576.31 500.91L576.51 501.57L576.69 502.23L576.86 502.89L577 503.54L577.12 504.18L577.21 504.82L577.29 505.45L577.34 506.08L577.36 506.7L577.36 507.31L577.34 507.91L577.29 508.51L577.21 509.09L577.11 509.67L576.98 510.24L576.82 510.8L576.63 511.35L576.41 511.89L576.17 512.42L575.89 512.94L575.58 513.45L575.24 513.95L574.86 514.44L574.46 514.91L574.02 515.38L507.75 581.64L507.29 582.08L506.82 582.48L506.34 582.85L505.85 583.18L505.35 583.48L504.84 583.75L504.32 583.98L503.79 584.19L503.26 584.36L502.72 584.5L502.16 584.62L501.6 584.7L501.03 584.76L500.46 584.8L499.87 584.8L499.28 584.78L498.68 584.74L498.07 584.67L497.45 584.59L496.83 584.47L496.19 584.34L495.55 584.19L494.91 584.02L494.25 583.83L493.59 583.62L492.92 583.4L492.25 583.15L491.57 582.9L490.88 582.62L490.19 582.34L489.48 582.04L488.78 581.73L488.06 581.4L487.34 581.07L486.62 580.72L485.89 580.37L485.15 580.01L484.4 579.64L483.66 579.26L482.9 578.88L437.53 552.61L436.64 553.1L427.81 557.46L418.79 561.48L409.59 565.16L400.22 568.49L395.98 569.8L382.48 620.48L382.21 621.28L381.95 622.08L381.69 622.86L381.42 623.64L381.15 624.41L380.88 625.17L380.61 625.91L380.33 626.64L380.06 627.37L379.77 628.07L379.48 628.77L379.19 629.45L378.89 630.11L378.58 630.76L378.27 631.39L377.95 632L377.62 632.6L377.28 633.18L376.94 633.74L376.59 634.28L376.22 634.8L375.85 635.3L375.47 635.78L375.07 636.23L374.66 636.66L374.25 637.07L373.81 637.46L373.37 637.82L372.91 638.16L372.44 638.46L371.96 638.75L371.46 639L370.94 639.23L370.41 639.43L369.86 639.6L369.29 639.74L368.71 639.86L368.11 639.94L367.49 639.98L366.86 640L273.14 640L272.5 639.98L271.88 639.94L271.27 639.86L270.68 639.74L270.1 639.6L269.54 639.43L268.99 639.23L268.45 639L267.93 638.75L267.42 638.46L266.92 638.16L266.44 637.82L265.97 637.46L265.52 637.07L265.07 636.66L264.64 636.23L264.22 635.78L263.82 635.3L263.42 634.8L263.04 634.28L262.67 633.74L262.31 633.18L261.96 632.6L261.62 632L261.29 631.39L260.97 630.76L260.67 630.11L260.37 629.45L260.08 628.77L259.81 628.07L259.54 627.37L259.28 626.64L259.03 625.91L258.79 625.17L258.56 624.41L258.34 623.64L258.12 622.86L257.91 622.08L257.72 621.28L257.52 620.48L244.02 569.8L239.78 568.49L230.41 565.16L221.21 561.48L212.19 557.46L203.36 553.1L202.3 552.52L157.1 578.69L156.39 579.13L155.69 579.55L154.99 579.96L154.29 580.36L153.59 580.74L152.89 581.11L152.19 581.47L151.49 581.81L150.8 582.14L150.11 582.45L149.43 582.74L148.74 583.02L148.06 583.28L147.39 583.52L146.72 583.75L146.05 583.95L145.39 584.13L144.73 584.29L144.08 584.43L143.44 584.55L142.8 584.65L142.17 584.72L141.54 584.77L140.93 584.8L140.32 584.8L139.71 584.78L139.12 584.73L138.53 584.65L137.95 584.55L137.38 584.42L136.82 584.26L136.27 584.07L135.73 583.85L135.2 583.6L134.68 583.32L134.17 583.02L133.67 582.67L133.19 582.3L132.71 581.89L132.25 581.45L65.98 515.19L65.55 514.73L65.14 514.26L64.77 513.77L64.44 513.28L64.14 512.78L63.87 512.28L63.64 511.76L63.44 511.23L63.26 510.7L63.12 510.15L63.01 509.6L62.92 509.04L62.86 508.47L62.83 507.89L62.82 507.31L62.84 506.72L62.88 506.11L62.95 505.5L63.04 504.89L63.15 504.26L63.28 503.63L63.43 502.99L63.6 502.35L63.79 501.69L64 501.03L64.23 500.36L64.47 499.69L64.73 499.01L65 498.32L65.29 497.62L65.59 496.92L65.9 496.21L66.22 495.5L66.55 494.78L66.9 494.06L67.25 493.32L67.62 492.59L67.99 491.84L68.36 491.09L68.75 490.34L94.96 445.07L94.52 444.26L90.16 435.43L86.14 426.42L82.46 417.22L79.13 407.85L77.82 403.61L27.15 390.1L26.34 389.84L25.55 389.57L24.76 389.31L23.98 389.05L23.21 388.78L22.46 388.51L21.71 388.24L20.98 387.96L20.26 387.68L19.55 387.4L18.86 387.11L18.18 386.81L17.51 386.51L16.87 386.21L16.23 385.89L15.62 385.57L15.02 385.25L14.44 384.91L13.88 384.56L13.34 384.21L12.82 383.85L12.33 383.47L11.85 383.09L11.39 382.7L10.96 382.29L10.55 381.87L10.17 381.44L9.8 381L9.47 380.54L9.16 380.07L8.88 379.58L8.62 379.08L8.39 378.56L8.19 378.03L8.02 377.48L7.88 376.92L7.77 376.34L7.69 375.74L7.64 375.12L7.62 374.48L7.62 280.77L7.64 280.13L7.69 279.51L7.77 278.9L7.88 278.3L8.02 277.73L8.19 277.16L8.39 276.61L8.62 276.07L8.88 275.55L9.16 275.04L9.47 274.55L9.8 274.07L10.17 273.6L10.55 273.14L10.96 272.7L11.39 272.27L11.85 271.85L12.33 271.44L12.82 271.05L13.34 270.66L13.88 270.29L14.44 269.93L15.02 269.58L15.62 269.24L16.23 268.92L16.87 268.6L17.51 268.29L18.18 268L18.86 267.71L19.55 267.43L20.26 267.16L20.98 266.91L21.71 266.66L22.46 266.42L23.21 266.19L23.98 265.96L24.76 265.75L25.55 265.54L26.34 265.34L27.15 265.15L77.82 251.64L79.13 247.4L82.46 238.03L86.14 228.83L90.16 219.82L94.52 210.99L95.01 210.1L68.75 164.72L68.36 163.97L67.99 163.22L67.62 162.48L67.25 161.74L66.9 161.01L66.55 160.28L66.22 159.56L65.9 158.85L65.59 158.14L65.29 157.44L65 156.75L64.73 156.06L64.47 155.38L64.23 154.7L64 154.03L63.79 153.37L63.6 152.72L63.43 152.07L63.28 151.43L63.15 150.8L63.04 150.18L62.95 149.56L62.88 148.95L62.84 148.35L62.82 147.75L62.83 147.17L62.86 146.59L62.92 146.02L63.01 145.46L63.12 144.91L63.26 144.37L63.44 143.83L63.64 143.3L63.87 142.79L64.14 142.28L64.44 141.78L64.77 141.29L65.14 140.81L65.55 140.34L65.98 139.87L132.25 73.61L132.71 73.17L133.19 72.76L133.67 72.39L134.17 72.05L134.68 71.74L135.2 71.46L135.73 71.21L136.27 70.99L136.82 70.81L137.38 70.65L137.95 70.52L138.53 70.41L139.12 70.34L139.71 70.29L140.32 70.26L140.93 70.26L141.54 70.29L142.17 70.34L142.8 70.41L143.44 70.51L144.08 70.63L144.73 70.77L145.39 70.93L146.05 71.12L146.72 71.32L147.39 71.54L148.06 71.78L148.74 72.04L149.43 72.32L150.11 72.61L150.8 72.92L151.49 73.25L152.19 73.59L152.89 73.95L153.59 74.32L154.29 74.71L154.99 75.11L155.69 75.52L156.39 75.94L157.1 76.37L202.47 102.64L203.36 102.15L212.19 97.79L221.21 93.77L230.41 90.09L239.78 86.76L244.02 85.45L257.52 34.77L257.72 33.97L257.91 33.17L258.12 32.39L258.34 31.61L258.56 30.84L258.79 30.08L259.03 29.34L259.28 28.61L259.54 27.88L259.81 27.18L260.08 26.48L260.37 25.8L260.67 25.14L260.97 24.49L261.29 23.86L261.62 23.25L261.96 22.65L262.31 22.07L262.67 21.51L263.04 20.97L263.42 20.45L263.82 19.95L264.22 19.47L264.64 19.02L265.07 18.59L265.52 18.18L265.97 17.79L266.44 17.43L266.92 17.09L267.42 16.79L267.93 16.5L268.45 16.25L268.99 16.02L269.54 15.82L270.1 15.65L270.68 15.51L271.27 15.39L271.88 15.31L272.5 15.27L273.14 15.25L366.86 15.25L367.49 15.27L368.11 15.31ZM308.79 191.41L303.28 191.97L297.83 192.75L292.46 193.74L287.16 194.93L281.94 196.33L276.8 197.93L271.76 199.72L266.8 201.7L261.95 203.87L257.19 206.22L252.55 208.74L248.01 211.44L243.59 214.3L239.29 217.33L235.11 220.52L231.06 223.86L227.14 227.35L223.36 230.99L219.73 234.77L216.23 238.69L212.89 242.74L209.7 246.91L206.68 251.21L203.81 255.64L201.11 260.17L198.59 264.82L196.24 269.57L194.08 274.43L192.09 279.38L190.3 284.43L188.71 289.56L187.31 294.78L186.11 300.08L185.12 305.46L184.35 310.9L183.79 316.42L183.45 321.99L183.34 327.63L183.45 333.26L183.79 338.83L184.35 344.35L185.12 349.79L186.11 355.17L187.31 360.47L188.71 365.69L190.3 370.82L192.09 375.87L194.08 380.82L196.24 385.68L198.59 390.43L201.11 395.08L203.81 399.61L206.68 404.04L209.7 408.34L212.89 412.51L216.23 416.56L219.73 420.48L223.36 424.26L227.14 427.9L231.06 431.39L235.11 434.73L239.29 437.92L243.59 440.95L248.01 443.81L252.55 446.51L257.19 449.03L261.95 451.38L266.8 453.55L271.76 455.53L276.8 457.32L281.94 458.92L287.16 460.32L292.46 461.51L297.83 462.5L303.28 463.28L308.79 463.84L314.37 464.18L320 464.29L325.63 464.18L331.21 463.84L336.72 463.28L342.17 462.5L347.54 461.51L352.84 460.32L358.06 458.92L363.2 457.32L368.24 455.53L373.2 453.55L378.05 451.38L382.81 449.03L387.45 446.51L391.99 443.81L396.41 440.95L400.71 437.92L404.89 434.73L408.94 431.39L412.86 427.9L416.64 424.26L420.27 420.48L423.77 416.56L427.11 412.51L430.3 408.34L433.32 404.04L436.19 399.61L438.89 395.08L441.41 390.43L443.76 385.68L445.92 380.82L447.91 375.87L449.7 370.82L451.29 365.69L452.69 360.47L453.89 355.17L454.88 349.79L455.65 344.35L456.21 338.83L456.55 333.26L456.66 327.63L456.55 321.99L456.21 316.42L455.65 310.9L454.88 305.46L453.89 300.08L452.69 294.78L451.29 289.56L449.7 284.43L447.91 279.38L445.92 274.43L443.76 269.57L441.41 264.82L438.89 260.17L436.19 255.64L433.32 251.21L430.3 246.91L427.11 242.74L423.77 238.69L420.27 234.77L416.64 230.99L412.86 227.35L408.94 223.86L404.89 220.52L400.71 217.33L396.41 214.3L391.99 211.44L387.45 208.74L382.81 206.22L378.05 203.87L373.2 201.7L368.24 199.72L363.2 197.93L358.06 196.33L352.84 194.93L347.54 193.74L342.17 192.75L336.72 191.97L331.21 191.41L325.63 191.07L320 190.96L314.37 191.07L308.79 191.41Z" id="ep6pFuNcP"></path></defs><g><g><g><use xlink:href="#ep6pFuNcP" opacity="1" fill="#110202" fill-opacity="1"></use></g></g></g></svg>